<?xml version="1.0" encoding="utf-8"?>
<!DOCTYPE svg PUBLIC "-//W3C//DTD SVG 20010904//EN" "http://www.w3.org/TR/2001/REC-SVG-20010904/DTD/svg10.dtd">
<svg version="1.0" xmlns="http://www.w3.org/2000/svg" width="1200px" height="776px" viewBox="0 0 1200 776" preserveAspectRatio="xMidYMid meet">
 <g fill="transparent">
  <path d="M0 388 l0 -388 600 0 600 0 0 388 0 388 -600 0 -600 0 0 -388z m347.3 313.8 l-2.7 -2.8 -2.8 2.7 -2.8 2.7 2.7 2.8 2.7 2.8 2.8 -2.7 2.8 -2.7 -2.7 -2.8z m399 0 l-2.7 -2.8 -2.8 2.7 -2.8 2.7 2.7 2.8 2.7 2.8 2.8 -2.7 2.8 -2.7 -2.7 -2.8z m-376.8 4.9 l2.6 -2.2 -2.9 -2.8 -3 -2.9 -2.6 2.8 -2.5 2.8 2.1 2.3 c2.7 2.8 3.1 2.8 6.3 0z m355.2 0.1 l2.3 -2.2 -2.7 -2.8 -2.7 -2.8 -2.8 2.7 -2.8 2.7 2.2 2.3 c2.7 2.9 3.6 2.9 6.5 0.1z m50.3 -0.3 l2.4 -2.6 -2.7 -2.7 -2.7 -2.7 -2.7 2.7 -2.7 2.7 2.4 2.6 c1.3 1.4 2.6 2.5 3 2.5 0.4 0 1.7 -1.1 3 -2.5z m-406.9 -26.2 c6.2 -2.8 12.9 -8.9 14.9 -13.8 1.4 -3.5 1.6 -7.8 1.2 -34.2 l-0.4 -30.3 -7.4 0 -7.4 0 0 32.8 c0 29.8 -0.2 33.1 -1.9 36.8 -2.4 5.3 -5.5 7.4 -10.8 7.4 -5.7 0 -8.9 -1.6 -11.6 -5.9 -2.2 -3.6 -2.2 -3.8 -2.5 -56.3 l-0.3 -52.8 -7.5 0 -7.5 0 0.3 49.3 0.3 49.2 2.4 4.5 c4 7.7 9.5 12.3 18.1 15.1 4.1 1.4 15.2 0.4 20.1 -1.8z m330.6 -0.4 c5.6 -2.7 11.8 -9.8 13.8 -16 1.4 -4.1 1.6 -8.4 1.3 -24.7 -0.3 -19.6 -0.3 -19.7 -3.2 -25 -5 -9 -12.3 -13.2 -24.1 -14 -14.6 -0.9 -25.1 4.4 -30.1 15.2 -2.3 4.8 -2.4 6.2 -2.4 25.7 0 16.6 0.3 21.4 1.6 24.5 3.5 8.3 9.5 13.6 18.4 16.1 6.2 1.7 19.2 0.8 24.7 -1.8z m-58.4 -7.7 l5.5 -6.8 -3.2 -2.6 -3.1 -2.5 -0.5 -19.9 c-0.5 -18.1 -0.8 -20.4 -2.9 -25.2 -7.4 -16.5 -29.1 -20.5 -42.9 -7.9 -8.6 8 -8.7 8.2 -9 41.5 l-0.4 29.2 8.1 0 8.1 0 0 -30.5 c0 -33.2 0.3 -35.2 5.5 -39.3 3.9 -3.1 10.5 -3 14.2 0.2 l2.8 2.4 0.5 27.4 c0.5 25.2 0.7 27.7 2.7 32 1.3 2.9 3.4 5.5 5.5 6.8 1.8 1.1 3.4 2 3.4 2 0.1 0 2.7 -3.1 5.7 -6.8z m-226.4 -2.2 c4.7 -6.5 5.1 -9.4 5.1 -39.6 l0 -28.4 -7.5 0 -7.5 0 0 26.9 0 26.9 -2.7 3.2 c-1.4 1.8 -3.4 3.5 -4.4 3.8 -1.5 0.6 -1.1 1.6 3.3 7.3 l5.1 6.7 3.1 -1.9 c1.8 -1 4.2 -3.2 5.5 -4.9z m31 2 c1.7 -1.7 4 -5.2 5.1 -7.7 1.9 -4.2 2 -6.6 2 -33.4 l0 -28.9 -7.5 0 -7.5 0 0 26.9 0 26.9 -2.7 3.2 c-1.4 1.8 -3.5 3.5 -4.5 3.9 -1.7 0.6 -1.3 1.4 3.4 7.3 5.8 7.2 6.2 7.3 11.7 1.8z m33.8 -1.9 c4.8 -6.2 5.3 -10.2 5.3 -40.3 l0 -27.8 -7.5 0 -7.5 0 0 26.6 c0 29.3 -0.3 30.8 -6.2 33.7 l-2.8 1.4 5.2 6.5 5.3 6.5 2.8 -1.6 c1.6 -0.9 4 -3.1 5.4 -5z m47 0 c4.9 -6.3 5.3 -9.9 5.3 -44.3 l0 -31.8 -7.5 0 -7.5 0 0 30.6 c0 21.2 -0.4 31.2 -1.2 32.7 -1.1 2.2 -4 4.7 -6.5 5.7 -0.8 0.3 0.5 2.8 4 7.1 l5.2 6.7 2.8 -1.7 c1.6 -0.9 4 -3.1 5.4 -5z m214.4 2.9 c2 -1.6 4.7 -5.1 6 -7.7 2.2 -4.6 2.3 -5.9 2.7 -34 l0.4 -29.3 -8.1 0 -8.1 0 0 27.5 0 27.6 -2.7 2.5 c-1.4 1.3 -3.7 2.7 -5 3 -1.3 0.4 -2.3 0.9 -2.3 1.2 0 1.1 11.4 12.2 12.5 12.2 0.6 0 2.7 -1.3 4.6 -3z m33 0.9 c1.6 -1.1 4.1 -4.1 5.6 -6.7 l2.8 -4.7 0.3 -30.2 0.3 -30.3 -7.5 0 -7.6 0 0 27.4 0 27.4 -3.1 2.6 c-1.7 1.4 -4.2 2.9 -5.6 3.2 -2.4 0.6 -2.3 0.8 3.8 7 3.5 3.5 6.7 6.4 7.2 6.4 0.5 0 2.2 -0.9 3.8 -2.1z m-291.1 -99.9 c0 -3.7 2.8 -7.7 6.1 -8.9 2 -0.7 12.6 -1.1 28.5 -1.1 l25.4 0 0 -8.1 0 -8.1 -26.8 0.4 -26.7 0.3 -6.7 3.3 c-7.6 3.7 -12.9 9.3 -15.3 16.2 -2.8 7.9 -2.6 8 7 8 7.9 0 8.5 -0.1 8.5 -2z m42.6 -117.9 l-19.3 -19.3 -19.2 19.1 c-18.1 17.9 -19.5 19.1 -23 19.1 -8.2 0 -26.2 -6.4 -37 -13.1 -17.1 -10.7 -27.3 -23.9 -34.2 -44.4 l-2.4 -7 -0.5 -82 -0.5 -82 -38.2 -0.3 -38.3 -0.2 0 83.3 c0 78.7 0.1 84 2 94.4 9.3 51.4 39.8 79.7 93.8 86.8 19.5 2.6 16.2 4 36.2 -16 16 -16 17.8 -17.5 21 -17.5 3.2 0 5 1.5 22 18.5 l18.5 18.5 19.2 -19.2 19.3 -19.3 -19.4 -19.4z m95.8 -0.1 l-19.4 -19.5 -19.2 19.3 -19.3 19.2 19.4 19.4 19.3 19.3 19.3 -19.1 19.3 -19.1 -19.4 -19.5z m91.5 53.5 c12.7 -2.2 22.8 -5.3 32.6 -9.9 9.3 -4.4 22.7 -13.8 28 -19.7 13.1 -14.5 21.4 -32.2 26.2 -55.5 1.7 -8.2 1.8 -15.9 1.8 -93.4 l0 -84.5 -36.5 -0.1 c-20.1 0 -37.3 0.1 -38.2 0.4 -1.7 0.4 -1.8 5 -1.8 78.7 l0 78.2 -2.4 9.6 c-2.4 9.2 -7.4 20.8 -11.9 27.1 -4 5.8 -13.2 14.8 -19.1 18.8 -8.3 5.7 -20.6 11.3 -30.8 14 -4.9 1.2 -8.8 2.6 -8.8 3 0 0.5 7.9 8.7 17.6 18.4 l17.6 17.7 8.8 -0.7 c4.8 -0.4 12.5 -1.3 16.9 -2.1z m-219.1 -190.1 l0.2 -72.2 -15.2 -0.7 c-8.4 -0.3 -23.6 -0.5 -33.8 -0.3 l-18.5 0.3 -0.3 71.5 c-0.1 39.3 0 72.1 0.3 72.8 0.3 1 7.6 1.2 33.7 1 l33.3 -0.3 0.3 -72.1z m97.2 0.2 c0 -65.1 -0.2 -72.4 -1.6 -73 -0.9 -0.3 -15.9 -0.6 -33.5 -0.6 l-31.9 0 0 2.3 c0 1.5 0 119.5 0 142.5 0 0.9 7.4 1.2 33.5 1.2 l33.5 0 0 -72.4z m98.8 -0.2 l0.2 -72.2 -2.2 -0.6 c-1.3 -0.3 -16.6 -0.6 -34 -0.6 l-31.8 0 0 73 0 73 33.8 -0.2 33.7 -0.3 0.3 -72.1z m110.2 -102.3 c0 -2.2 -6.6 -22.8 -10.7 -33.1 -24.2 -61.3 -68.5 -108.8 -124.8 -133.7 -79.6 -35.2 -177.7 -25.6 -250.5 24.5 -28.4 19.6 -53.8 46.2 -70.9 74.5 -10.6 17.7 -24.2 50.1 -26.7 64 l-0.6 3.7 39.8 0 39.9 0 3.5 -9.2 c4.3 -11.3 13.2 -27.5 21.1 -38.5 23.5 -32.5 59.4 -55.9 98.7 -64.4 12.4 -2.6 42.2 -3.7 57.3 -2 63.2 7.2 109.5 40.9 137.9 100.4 l6.5 13.6 17 0.3 c39.2 0.8 62.5 0.7 62.5 -0.1z"/>
  <path d="M674.1 676.3 c-4.5 -5.7 -5.3 -11.5 -4.9 -37.6 0.4 -25.3 0.7 -27.4 5.2 -32.4 1.7 -2 2.9 -2.3 9.3 -2.3 6.6 0 7.7 0.3 9.7 2.5 4 4.3 4.6 8.8 4.6 34.6 0 25.9 -0.6 30 -4.6 34.9 -2.4 2.8 -3 3 -9.9 3 -6.8 0 -7.5 -0.2 -9.4 -2.7z"/>
 </g>
 <g fill="#fefefe">
  <path d="M338.2 709.7 l-5.2 -5.3 5.8 -5.7 5.8 -5.7 4.9 5 c2.7 2.7 5.4 5 6 5 0.5 0 3.2 -2.3 5.9 -5 l5 -5.1 5.3 5.3 c2.9 2.9 5.3 5.6 5.3 6.1 0 1.1 -9.7 10.7 -10.8 10.7 -0.4 0 -3 -2.3 -5.7 -5 l-4.9 -5 -5.1 5 c-2.8 2.7 -5.5 5 -6.1 5 -0.5 0 -3.3 -2.4 -6.2 -5.3z"/>
  <path d="M715.8 710.2 c-2.7 -2.6 -4.8 -5.2 -4.8 -5.7 0 -0.6 2.4 -3.4 5.3 -6.3 l5.3 -5.2 4.9 5 c2.7 2.7 5.4 5 6 5 0.6 0 3.3 -2.3 6 -5 l4.9 -5 5.8 5.6 5.7 5.7 -5.1 5.4 c-2.8 2.9 -5.6 5.3 -6.3 5.3 -0.6 0 -3.3 -2.3 -6 -5 l-4.9 -5 -5.1 5 c-2.8 2.7 -5.5 5 -6 5 -0.6 0 -3.1 -2.2 -5.7 -4.8z"/>
  <path d="M766 709.5 l-5.5 -5.5 5.8 -5.8 5.7 -5.7 5.7 5.7 5.8 5.8 -5.5 5.5 c-3 3 -5.7 5.5 -6 5.5 -0.3 0 -3 -2.5 -6 -5.5z"/>
  <path d="M345 685.1 c-8.5 -2.8 -14.1 -7.4 -18.1 -15.1 l-2.4 -4.5 -0.3 -52.2 -0.3 -52.3 10.5 0 10.5 0 0.3 52.8 0.3 52.7 2.3 3.6 c4.8 7.8 11.7 7.3 16 -1.1 2.1 -4.3 2.2 -5.2 2.2 -37.2 l0 -32.8 10.5 0 c5.8 0 10.5 0.3 10.5 0.8 0 0.4 0.1 12.2 0.1 26.2 0.1 14 0.4 27.5 0.8 30 0.6 4.2 0.8 4.5 3.6 4.3 2 -0.2 4.1 -1.4 6.3 -3.7 l3.2 -3.6 0 -27 0 -27 10.5 0 10.5 0 0 31.1 0 31.1 2.8 -0.6 c1.5 -0.4 4.2 -2.2 6 -4.1 l3.2 -3.5 0 -27 0 -27 10.5 0 10.5 0 0 31 c0 17.1 0.3 31 0.6 31 2.1 0 7.3 -3.5 8.7 -5.9 1.5 -2.5 1.7 -6.2 1.7 -29.5 l0 -26.6 10.5 0 10.5 0 0 30.8 c0 32.6 -0.4 36.1 -4.8 42.5 -2.5 3.8 -9.5 8.7 -12.3 8.7 -0.8 0 -4.5 -3.9 -8.4 -8.7 l-6.9 -8.6 -1.8 4.1 c-2.8 6.3 -10.9 13.2 -15.5 13.2 -0.4 0 -3.9 -4 -7.8 -8.9 -3.8 -5 -7.3 -9 -7.6 -9 -0.4 -0.1 -1 1.1 -1.4 2.7 -1.5 6.2 -10.8 15.2 -15.8 15.2 -0.8 0 -3.9 -3.3 -7 -7.3 -3.1 -4 -6.5 -8.1 -7.5 -9 -1.8 -1.6 -1.9 -1.5 -3.1 2.4 -1.7 5.5 -8.1 12.3 -14.9 15.6 -4.8 2.3 -7.1 2.8 -15.2 3 -5.2 0.1 -10.6 -0.1 -12 -0.6z"/>
  <path d="M671 684.7 c-8.7 -2.5 -15.6 -8.4 -18.2 -15.7 -0.5 -1.7 -1.3 -3 -1.6 -3 -0.4 0.1 -3.6 3.7 -7.1 8 -5.5 6.9 -6.7 8 -9.5 8 -4.8 0 -9.5 -3.4 -11.9 -8.8 -2 -4.3 -2.2 -6.8 -2.7 -32 l-0.5 -27.4 -2.8 -2.4 c-3.5 -3 -4.7 -3 -8.2 -0.2 -5.2 4.1 -5.5 6.1 -5.5 39.3 l0 30.5 -11.1 0 -11 0 0.3 -32.2 c0.3 -30.9 0.4 -32.5 2.5 -36.3 5.5 -10.3 16.1 -16 29.3 -15.9 12.4 0.1 21.6 5.6 26.1 15.6 2.1 4.8 2.4 7.1 2.9 25.1 l0.5 19.9 2.9 2.4 c1.5 1.4 3.3 2.3 4 2.1 0.7 -0.2 1.3 -7.4 1.6 -23.3 0.6 -26 1.1 -27.9 9.2 -34.8 6.2 -5.4 12.7 -6.9 26.2 -6.4 14.9 0.6 21.7 4.1 27.2 14 l2.9 5.3 0.3 22.3 c0.2 13.1 0.8 22.2 1.3 22.2 2 0 7.8 -2.9 9.8 -4.9 2 -2 2.1 -3 2.1 -29.6 l0 -27.5 11.1 0 11 0 -0.1 30.3 c-0.1 16.6 -0.1 30.5 -0.1 31 0.1 1.1 7.3 -2.1 9.8 -4.5 2.3 -2.1 2.3 -2.4 2.3 -29.5 l0 -27.3 10.5 0 10.5 0 0 31.8 c-0.1 33.9 -0.3 36 -5.3 42.5 -1.4 1.8 -4.6 4.4 -7.1 5.8 l-4.6 2.4 -8.5 -8.5 c-6.9 -6.9 -8.7 -8.2 -9.5 -7 -0.5 0.8 -1 2.1 -1 2.8 0 2 -8.1 9.6 -11.9 11.1 l-3.3 1.4 -8.6 -8.6 c-4.6 -4.8 -8.6 -8.7 -8.7 -8.7 -0.1 0 -0.7 1.7 -1.3 3.9 -1.6 5.1 -8.2 12.4 -13.6 15 -5.5 2.7 -23.7 3.8 -30.6 1.8z m19.4 -11.7 c4 -4.8 4.6 -9 4.6 -31.9 0 -22.7 -0.7 -27.4 -4.6 -31.6 -3.1 -3.4 -10.1 -3.5 -13 -0.2 -4.4 4.9 -4.8 7.4 -5.2 29.4 -0.4 22.8 0.5 29.1 4.9 34.6 1.6 2.2 2.9 2.7 6.4 2.7 3.6 0 4.8 -0.5 6.9 -3z"/>
  <path d="M507.7 671.3 l-7.8 -9.7 3.4 -1.1 c4.1 -1.3 7 -3.4 8.5 -6.2 0.8 -1.5 1.2 -11.5 1.2 -32.7 l0 -30.6 10.5 0 10.5 0 0 34.8 c0 37.8 -0.3 40.9 -5.5 47.5 -2.4 3.2 -9.5 7.7 -12.1 7.7 -0.5 0 -4.4 -4.4 -8.7 -9.7z"/>
  <path d="M462 574.1 c0 -10.9 6 -20 16.8 -25.3 l6.7 -3.3 29.7 -0.3 29.8 -0.4 0 11.1 0 11.1 -25.4 0 c-15.9 0 -26.5 0.4 -28.5 1.1 -3.3 1.2 -6.1 5.2 -6.1 8.9 0 1.9 -0.6 2 -11.5 2 l-11.5 0 0 -4.9z"/>
  <path d="M485.2 499.8 l-20.2 -20.3 -17.8 17.8 -17.7 17.7 -6.7 0 c-3.7 0 -11.8 -0.7 -18 -1.5 -27.9 -3.6 -48.1 -12.2 -63.5 -26.9 -16.3 -15.4 -25.6 -33.9 -30.3 -59.9 -1.9 -10.5 -2 -15.7 -2 -97.4 l0 -86.3 41.3 0.2 41.2 0.3 0.5 82 0.5 82 2.4 7 c9.4 27.9 26.9 44.9 56.1 54.3 13.3 4.3 10.1 5.9 33.5 -17.3 l20.8 -20.7 22.4 22.4 22.3 22.3 -22.3 22.3 -22.2 22.2 -20.3 -20.2z"/>
  <path d="M578.5 497 l-22 -22 22.3 -22.2 22.2 -22.3 21.5 21.5 21.5 21.5 10.7 -2.8 c22.7 -6 41.1 -17.7 52 -33.3 4.5 -6.3 9.5 -17.9 11.9 -27.1 l2.4 -9.6 0 -78.8 0 -78.8 41.3 0.2 41.2 0.2 0 87.5 c0 80.4 -0.1 88.2 -1.8 96.4 -4.8 23.3 -13.1 41 -26.2 55.5 -5.3 5.9 -18.7 15.3 -28 19.7 -15 7 -32.2 11 -52.7 12.1 l-11.7 0.6 -19.1 -19.3 c-16.9 -17 -19.2 -19.1 -20.7 -17.9 -0.9 0.8 -10.6 10.3 -21.5 21.2 -10.8 10.8 -20.1 19.7 -20.5 19.7 -0.5 0 -10.7 -9.9 -22.8 -22z"/>
  <path d="M422.5 393.8 c-0.3 -0.7 -0.4 -34.8 -0.3 -75.8 l0.3 -74.5 36.5 0 36.5 0 0 75.5 0 75.5 -36.3 0.3 c-28.5 0.2 -36.4 0 -36.7 -1z"/>
  <path d="M520 393.8 c-0.1 -2.3 -0.1 -146.3 0 -148.5 l0 -2.3 34.9 0 c19.2 0 35.6 0.3 36.5 0.6 1.4 0.6 1.6 8.2 1.6 76 l0 75.4 -36.5 0 c-28.5 0 -36.5 -0.3 -36.5 -1.2z"/>
  <path d="M618 319 l0 -76.1 36.8 0.3 36.7 0.3 0 75.5 0 75.5 -36.7 0.3 -36.8 0.2 0 -76z"/>
  <path d="M733.5 220.2 l-17 -0.3 -6.5 -13.6 c-28.4 -59.6 -74.6 -93.2 -138 -100.4 -14.2 -1.6 -38.6 -0.6 -51.2 2.1 -39.1 8.3 -75.2 31.8 -98.7 64.3 -7.9 11 -16.8 27.2 -21.1 38.5 l-3.5 9.2 -43.8 0 c-41.3 0 -43.8 -0.1 -43.3 -1.7 0.3 -1 1.4 -5.5 2.6 -10.1 13.4 -53.4 48.9 -103.3 97 -136.4 61 -42 144.5 -56.5 218.1 -37.8 82.9 21 146.7 84.8 171.5 171.3 1.9 6.7 3.7 13 4 14 0.5 1.6 -1.1 1.7 -26.3 1.5 -14.7 -0.1 -34.4 -0.4 -43.8 -0.6z"/>
 </g>
</svg>